<svg xmlns="http://www.w3.org/2000/svg" version="1.1" xmlns:xlink="http://www.w3.org/1999/xlink" xmlns:svgjs="http://svgjs.dev/svgjs" width="1000" height="1125" viewBox="0 0 1000 1125"><g transform="matrix(1,0,0,1,1.7053025658242404e-13,0)"><svg viewBox="0 0 320 360" data-background-color="#ffffff" preserveAspectRatio="xMidYMid meet" height="1125" width="1000" xmlns="http://www.w3.org/2000/svg" xmlns:xlink="http://www.w3.org/1999/xlink"><g id="tight-bounds" transform="matrix(1,0,0,1,0,0)"><svg viewBox="0 0 320 360" height="360" width="320"><g><svg></svg></g><g><svg viewBox="0 0 320 360" height="360" width="320"><g><path d="M20.961 227.22l3.726 4.658-1.863-6.056c-0.466-2.795-3.726 0.466-1.863 1.398M25.153 224.425c1.397 2.329 2.795 4.658 2.795 6.987 0 3.261 2.795 4.658 5.123 5.589-3.261-3.726-5.124-13.974-7.918-12.576M204.017 26.929c7.918 0 15.371-0.932 23.756 0.931 20.495 5.124 37.729 15.371 49.374 29.811l32.606 52.169c1.397 13.042 4.192 27.482 3.726 43.319 3.261 0 2.795-4.658 6.521-5.59-3.726 9.316-5.59 20.961-6.521 34.469-2.329-7.453 0-18.632 0.466-24.687-3.261 5.124-5.124 1.397-5.124-0.932 0.466-3.726-1.397-3.261-2.795-4.658-5.124-4.658-8.384-9.782-12.11-17.7 2.329-6.055 2.795-14.905-4.658-19.563-2.329-1.397-5.124-3.726-6.521-7.453-1.863-5.124-5.124-11.179-4.193-19.097 0.466-2.329-6.987 5.124-11.179 1.863-18.166-12.576-36.332-27.016-58.224-39.127-11.645 0-20.029-4.192-24.221-9.316-3.726-4.658-0.932-10.713 4.658-11.179 3.261 0 6.987-0.932 9.782 0.932 0.466-1.863 2.329-4.192 4.657-4.192M157.904 16.215l0.932 0.466c4.658 0.932 6.987 7.453 12.11 5.124 0 3.261 0.466 6.521-0.466 8.85-1.397 3.726-5.59 3.726-8.85 3.726-31.208-1.863-49.374 11.179-68.471 22.358-5.124 3.261-10.713 5.59-14.906 9.782-20.029 18.632-41.921 35.866-47.045 70.335l-4.192 38.195c-0.466 4.192-5.124 8.384-4.192 13.508l3.26 22.824c-3.261-3.261-5.124 0.932-4.192 2.795 0.466 1.397 2.329 6.055 5.124 1.863 3.726 6.987 7.453 20.495 12.576 26.55 15.837 18.632 36.332 35.4 53.101 52.169 4.192-0.932 7.453-0.932 8.384-3.727 1.397 2.795-1.397 5.59-3.726 6.056 7.453 4.658 15.837 8.85 27.016 9.781 14.44 0.932 27.948 3.261 40.524 6.522 6.521-1.863 13.042-2.795 20.029-3.261 2.329 0 3.726-3.726 6.521-4.658l0.466-4.658c2.795 4.192 2.329-1.397 0.466-4.192 3.261 2.795 4.192 5.124 5.589 6.987 0-1.397 3.726-6.521 3.727-0.466l0.931-6.055c1.397-0.932 1.863 5.124 3.261 0.931 1.397-4.192 4.192-0.932 6.987-2.329-0.932 1.863-0.466 5.59 2.794 3.261l3.727-3.261c2.329 5.59 6.055 3.261 7.918 2.329 20.495-13.042 40.99-28.413 60.553-43.784l-0.466 6.055 2.329-7.453c2.329 2.329 4.192 0.466 5.124-0.931 2.795-4.658 6.521-9.316 12.577-13.508-7.453 20.029-16.303 35.866-27.482 48.908l-4.658 5.59c0 3.261-0.932 7.453-4.658 7.918-1.863 0.466-5.59-0.932-8.384 1.863-1.397 1.863 3.261 5.59-0.466 2.795-3.261-2.329-6.521 0-10.248 0.932-2.795 0.932 1.863 3.726 2.795 5.589 0.932 1.863 1.863 3.726 1.398 6.056l-5.124-5.59c-6.055 3.261-9.782 9.316-14.906 13.974-2.329 1.863-1.397 5.124-1.397 7.918-3.261 0-6.987-0.932-8.85 0.932-1.397 1.863-0.932 4.658-0.932 7.453-4.658-0.466-5.124-7.453-9.315-6.056-4.192 0.932-8.85 1.397-12.577 3.727 2.795 5.59-4.658 2.329-3.726 3.26-6.987-4.192-13.042-7.453-20.495-4.658-15.837-5.124-35.4-2.795-49.84-0.931 0-2.329 0.466-4.658-0.466-5.124-0.932 2.329-3.726 1.397-3.26 1.397-8.85-6.055-17.7-9.782-27.016-14.905-8.384 0.932-16.303-3.261-18.632-5.59-6.521-6.055-13.974-2.795-20.029-4.192-13.042-3.261-17.7-16.769-19.098-26.084-0.932-4.658-4.658-6.521-6.055-6.056-6.055-19.563-15.371-37.263-22.824-55.429-1.863-4.658-1.397-9.316-1.397-14.44 2.329 0.932 4.658 0.466 4.192-2.794-2.329-15.371-7.918-27.016-13.974-38.195 3.261-15.837 3.726-34.469 11.179-48.443 6.521-12.576 18.632-19.098 27.016-29.811 2.795-3.726 2.795-8.85 5.59-12.11 9.316-9.316 18.632-19.098 28.879-27.482 4.658-3.726 10.247 0 17.234-1.397 2.329-8.384 11.645-15.837 20.495-13.508 3.726 0.932 11.179-8.85 13.508-9.782 3.726-1.397 1.863 3.726 1.863 6.987 8.85-6.987 20.961-10.713 32.14-14.906" fill="#50a060" fill-rule="nonzero" stroke="none" stroke-width="1" stroke-linecap="butt" stroke-linejoin="miter" stroke-miterlimit="10" stroke-dasharray="" stroke-dashoffset="0" font-family="none" font-weight="none" font-size="none" text-anchor="none" style="mix-blend-mode: normal" data-fill-palette-color="tertiary"></path></g><g transform="matrix(1,0,0,1,64,154.2842614153846)"><svg viewBox="0 0 192 51.431477169230774" height="51.431477169230774" width="192"><g><svg viewBox="0 0 192 51.431477169230774" height="51.431477169230774" width="192"><g><svg viewBox="0 0 192 51.431477169230774" height="51.431477169230774" width="192"><g id="textblocktransform"><svg viewBox="0 0 192 51.431477169230774" height="51.431477169230774" width="192" id="textblock"><g><svg viewBox="0 0 192 29.12189349112426" height="29.12189349112426" width="192"><g transform="matrix(1,0,0,1,0,0)"><svg width="192" viewBox="0.98 -37.55 247.54000000000002 37.55" height="29.12189349112426" data-palette-color="#50a060"><path d="M33.13-35.01L33.13-8.91Q33.13-7.01 32.47-5.37 31.81-3.74 30.63-2.54 29.44-1.34 27.81-0.67 26.17 0 24.24 0L24.24 0 0.98 0 0.98-6.35 24.24-6.35Q25.42-6.35 26.07-7.02 26.73-7.69 26.73-8.91L26.73-8.91 26.73-35.01 33.13-35.01ZM66.82-17.65L66.82-8.74Q66.82-7.42 66.35-5.9 65.89-4.37 64.85-3.06 63.82-1.76 62.14-0.88 60.47 0 58.08 0L58.08 0 46.63 0Q45.31 0 43.78-0.46 42.26-0.93 40.95-1.97 39.65-3 38.77-4.68 37.89-6.35 37.89-8.74L37.89-8.74Q37.89-10.06 38.35-11.6 38.82-13.13 39.85-14.44 40.89-15.75 42.56-16.63 44.24-17.5 46.63-17.5L46.63-17.5 58.08-17.5 58.08-11.45 46.63-11.45Q45.33-11.45 44.63-10.66 43.92-9.86 43.92-8.69L43.92-8.69Q43.92-7.45 44.74-6.75 45.55-6.05 46.68-6.05L46.68-6.05 58.08-6.05Q59.37-6.05 60.08-6.84 60.79-7.62 60.79-8.79L60.79-8.79 60.79-17.65Q60.79-18.9 60.02-19.63 59.25-20.36 58.08-20.36L58.08-20.36 44.14-20.36 44.14-26.39 58.08-26.39Q59.4-26.39 60.92-25.93 62.45-25.46 63.75-24.43 65.06-23.39 65.94-21.72 66.82-20.04 66.82-17.65L66.82-17.65ZM95.33-26.39L95.33-20.04 81.05-20.04Q79.76-20.04 79.1-19.4 78.44-18.75 78.44-17.5L78.44-17.5 78.44 0 72.09 0 72.09-17.5Q72.09-19.14 72.5-20.43 72.92-21.73 73.62-22.72 74.31-23.71 75.21-24.4 76.12-25.1 77.11-25.54 78.1-25.98 79.11-26.18 80.12-26.39 81-26.39L81-26.39 95.33-26.39ZM127.8-17.65L127.8-17.65Q127.8-16.33 127.34-14.81 126.87-13.28 125.83-11.98 124.8-10.67 123.12-9.79 121.45-8.91 119.06-8.91L119.06-8.91 107.61-8.91 107.61-14.94 119.06-14.94Q120.35-14.94 121.06-15.73 121.77-16.53 121.77-17.7L121.77-17.7Q121.77-18.95 120.98-19.65 120.18-20.36 119.06-20.36L119.06-20.36 107.61-20.36Q106.32-20.36 105.61-19.57 104.9-18.77 104.9-17.6L104.9-17.6 104.9-8.74Q104.9-7.47 105.69-6.76 106.49-6.05 107.66-6.05L107.66-6.05 119.06-6.05 119.06 0 107.61 0Q106.29 0 104.77-0.46 103.24-0.93 101.93-1.97 100.63-3 99.75-4.68 98.87-6.35 98.87-8.74L98.87-8.74 98.87-17.65Q98.87-18.97 99.33-20.5 99.8-22.02 100.83-23.33 101.87-24.63 103.54-25.51 105.22-26.39 107.61-26.39L107.61-26.39 119.06-26.39Q120.38-26.39 121.9-25.93 123.43-25.46 124.74-24.43 126.04-23.39 126.92-21.72 127.8-20.04 127.8-17.65ZM161.03-37.55L161.03-8.91Q161.03-7.28 160.61-5.97 160.2-4.66 159.51-3.67 158.83-2.69 157.92-1.99 157.02-1.29 156.03-0.85 155.04-0.42 154.03-0.21 153.02 0 152.11 0L152.11 0 140.66 0Q139.03 0 137.73-0.42 136.44-0.83 135.45-1.53 134.46-2.22 133.77-3.13 133.07-4.03 132.63-5.02 132.19-6.01 131.98-7.02 131.78-8.03 131.78-8.91L131.78-8.91 131.78-17.5Q131.78-19.95 132.67-21.64 133.56-23.34 134.89-24.4 136.22-25.46 137.78-25.93 139.35-26.39 140.66-26.39L140.66-26.39 152.11-26.39 152.11-20.04 140.71-20.04Q139.44-20.04 138.78-19.4 138.12-18.75 138.12-17.5L138.12-17.5 138.12-8.96Q138.12-7.67 138.77-7.01 139.42-6.35 140.66-6.35L140.66-6.35 152.11-6.35Q153.41-6.35 154.04-7.01 154.68-7.67 154.68-8.91L154.68-8.91 154.68-37.55 161.03-37.55ZM172.38-3.2L172.38-3.2Q172.38-2.54 172.12-1.97 171.86-1.39 171.44-0.96 171.01-0.54 170.43-0.29 169.86-0.05 169.23-0.05L169.23-0.05Q168.57-0.05 167.99-0.29 167.42-0.54 166.99-0.96 166.56-1.39 166.32-1.97 166.08-2.54 166.08-3.2L166.08-3.2Q166.08-3.83 166.32-4.41 166.56-4.98 166.99-5.41 167.42-5.83 167.99-6.09 168.57-6.35 169.23-6.35L169.23-6.35Q169.86-6.35 170.43-6.09 171.01-5.83 171.44-5.41 171.86-4.98 172.12-4.41 172.38-3.83 172.38-3.2ZM183.77-37.55L183.77-31.81 177.43-31.81 177.43-37.55 183.77-37.55ZM183.77-26.39L183.77 0 177.43 0 177.43-26.39 183.77-26.39ZM215.36-8.91L215.36-8.91Q215.36-7.28 214.95-5.97 214.53-4.66 213.85-3.67 213.17-2.69 212.26-1.99 211.36-1.29 210.37-0.85 209.38-0.42 208.37-0.21 207.36 0 206.45 0L206.45 0 189.26 0 189.26-6.35 206.4-6.35Q207.7-6.35 208.36-7.01 209.02-7.67 209.02-8.91L209.02-8.91Q208.89-11.45 206.45-11.45L206.45-11.45 196.61-11.45Q194.51-11.45 193.05-12.18 191.58-12.92 190.67-14.01 189.75-15.11 189.35-16.38 188.95-17.65 188.95-18.75L188.95-18.75Q188.95-20.87 189.7-22.33 190.46-23.78 191.61-24.68 192.76-25.59 194.1-25.99 195.44-26.39 196.61-26.39L196.61-26.39 212.21-26.39 212.21-20.04 196.66-20.04Q196.17-20.04 195.89-19.93 195.61-19.82 195.48-19.64 195.34-19.46 195.32-19.25 195.3-19.04 195.3-18.85L195.3-18.85Q195.32-18.46 195.44-18.24 195.56-18.02 195.75-17.92 195.93-17.82 196.16-17.81 196.39-17.8 196.61-17.8L196.61-17.8 206.45-17.8Q208.89-17.8 210.6-16.92 212.31-16.04 213.36-14.71 214.41-13.38 214.89-11.82 215.36-10.25 215.36-8.91ZM248.52-17.5L248.52-8.91Q248.52-7.28 248.1-5.97 247.69-4.66 247-3.67 246.32-2.69 245.41-1.99 244.51-1.29 243.52-0.85 242.53-0.42 241.52-0.21 240.51 0 239.6 0L239.6 0 228.15 0Q226.84 0 225.27-0.46 223.71-0.93 222.38-1.99 221.05-3.05 220.16-4.75 219.27-6.45 219.27-8.91L219.27-8.91 219.27-17.5Q219.27-19.95 220.16-21.64 221.05-23.34 222.38-24.4 223.71-25.46 225.27-25.93 226.84-26.39 228.15-26.39L228.15-26.39 239.6-26.39Q242.05-26.39 243.75-25.51 245.46-24.63 246.51-23.3 247.56-21.97 248.04-20.41 248.52-18.85 248.52-17.5L248.52-17.5ZM242.17-8.91L242.17-17.46Q242.17-18.77 241.51-19.41 240.85-20.04 239.6-20.04L239.6-20.04 228.2-20.04Q226.93-20.04 226.27-19.4 225.61-18.75 225.61-17.5L225.61-17.5 225.61-8.91Q225.61-7.67 226.27-7.01 226.93-6.35 228.2-6.35L228.2-6.35 239.6-6.35Q240.9-6.35 241.53-7.01 242.17-7.67 242.17-8.91L242.17-8.91Z" opacity="1" transform="matrix(1,0,0,1,0,0)" fill="#50a060" class="wordmark-text-0" data-fill-palette-color="primary" id="text-0"></path></svg></g></svg></g><g transform="matrix(1,0,0,1,112.51943260882301,35.99687361893491)"><svg viewBox="0 0 79.48056739117699 15.43460355029586" height="15.43460355029586" width="79.48056739117699"><g transform="matrix(1,0,0,1,0,0)"><svg width="79.48056739117699" viewBox="2.85 -39.65 260.02 50.5" height="15.43460355029586" data-palette-color="#50a060"><path d="M15.2-27.15Q18.05-27.15 19.7-25.1 21.35-23.05 21.35-19.6L21.35-19.6 21.35 0 15.2 0 15.2-18.9Q15.2-20.8 14.68-21.63 14.15-22.45 13.15-22.45L13.15-22.45Q11.05-22.45 9-18.5L9-18.5 9 0 2.85 0 2.85-26.45 8.2-26.45 8.65-23Q10-25.1 11.53-26.13 13.05-27.15 15.2-27.15L15.2-27.15ZM36.3-27.15Q41.3-27.15 44.07-23.65 46.85-20.15 46.85-13.25L46.85-13.25Q46.85-6.65 44.05-2.95 41.25 0.75 36.3 0.75L36.3 0.75Q31.35 0.75 28.55-2.88 25.75-6.5 25.75-13.25L25.75-13.25Q25.75-19.95 28.55-23.55 31.35-27.15 36.3-27.15L36.3-27.15ZM36.3-22.5Q34.15-22.5 33.15-20.38 32.15-18.25 32.15-13.25L32.15-13.25Q32.15-8.2 33.15-6.08 34.15-3.95 36.3-3.95L36.3-3.95Q38.45-3.95 39.45-6.08 40.45-8.2 40.45-13.25L40.45-13.25Q40.45-18.3 39.45-20.4 38.45-22.5 36.3-22.5L36.3-22.5ZM73.45-26.45L79.15-26.45 74.59 0 67.09 0 64.15-20.85 61.25 0 53.8 0 49.15-26.45 55.09-26.45 57.8-4.6 61.15-26.45 67.4-26.45 70.59-4.6 73.45-26.45ZM98.09 0.75Q95.39 0.75 93.82-0.93 92.24-2.6 92.24-5.4L92.24-5.4 92.24-37.05 98.39-37.7 98.39-5.65Q98.39-5 98.69-4.6 98.99-4.2 99.59-4.2L99.59-4.2Q99.94-4.2 100.27-4.3 100.59-4.4 100.69-4.4L100.69-4.4 101.89-0.2Q100.19 0.75 98.09 0.75L98.09 0.75ZM114.34-27.15Q119.34-27.15 122.11-23.65 124.89-20.15 124.89-13.25L124.89-13.25Q124.89-6.65 122.09-2.95 119.29 0.75 114.34 0.75L114.34 0.75Q109.39 0.75 106.59-2.88 103.79-6.5 103.79-13.25L103.79-13.25Q103.79-19.95 106.59-23.55 109.39-27.15 114.34-27.15L114.34-27.15ZM114.34-22.5Q112.19-22.5 111.19-20.38 110.19-18.25 110.19-13.25L110.19-13.25Q110.19-8.2 111.19-6.08 112.19-3.95 114.34-3.95L114.34-3.95Q116.49-3.95 117.49-6.08 118.49-8.2 118.49-13.25L118.49-13.25Q118.49-18.3 117.49-20.4 116.49-22.5 114.34-22.5L114.34-22.5ZM146.34-6.4Q146.34-5.1 146.69-4.48 147.04-3.85 147.84-3.45L147.84-3.45 146.59 0.65Q144.54 0.4 143.31-0.45 142.09-1.3 141.49-3.05L141.49-3.05Q139.19 0.75 135.04 0.75L135.04 0.75Q131.74 0.75 129.79-1.48 127.84-3.7 127.84-7.4L127.84-7.4Q127.84-11.7 130.51-13.95 133.19-16.2 138.29-16.2L138.29-16.2 140.34-16.2 140.34-18.05Q140.34-20.55 139.46-21.58 138.59-22.6 136.64-22.6L136.64-22.6Q134.29-22.6 130.79-21.3L130.79-21.3 129.39-25.3Q131.39-26.2 133.54-26.68 135.69-27.15 137.64-27.15L137.64-27.15Q146.34-27.15 146.34-18.35L146.34-18.35 146.34-6.4ZM136.69-3.7Q139.09-3.7 140.34-7L140.34-7 140.34-12.55 138.89-12.55Q136.34-12.55 135.16-11.4 133.99-10.25 133.99-7.85L133.99-7.85Q133.99-5.8 134.69-4.75 135.39-3.7 136.69-3.7L136.69-3.7ZM165.08-37.7L171.23-37.05 171.23 0 165.78 0 165.48-3.05Q163.13 0.75 159.43 0.75L159.43 0.75Q155.33 0.75 153.16-2.93 150.98-6.6 150.98-13.2L150.98-13.2Q150.98-17.4 152.11-20.58 153.23-23.75 155.23-25.45 157.23-27.15 159.83-27.15L159.83-27.15Q163.03-27.15 165.08-24.5L165.08-24.5 165.08-37.7ZM161.18-3.9Q162.33-3.9 163.26-4.7 164.18-5.5 165.08-7L165.08-7 165.08-19.85Q163.48-22.55 161.43-22.55L161.43-22.55Q157.38-22.55 157.38-13.25L157.38-13.25Q157.38-8.2 158.38-6.05 159.38-3.9 161.18-3.9L161.18-3.9ZM176.93-26.45L183.08-26.45 183.08 0 176.93 0 176.93-26.45ZM179.98-39.65Q181.63-39.65 182.66-38.6 183.68-37.55 183.68-35.9L183.68-35.9Q183.68-34.3 182.66-33.25 181.63-32.2 179.98-32.2L179.98-32.2Q178.33-32.2 177.31-33.25 176.28-34.3 176.28-35.9L176.28-35.9Q176.28-37.55 177.31-38.6 178.33-39.65 179.98-39.65L179.98-39.65ZM201.13-27.15Q203.98-27.15 205.63-25.1 207.28-23.05 207.28-19.6L207.28-19.6 207.28 0 201.13 0 201.13-18.9Q201.13-20.8 200.6-21.63 200.08-22.45 199.08-22.45L199.08-22.45Q196.98-22.45 194.93-18.5L194.93-18.5 194.93 0 188.78 0 188.78-26.45 194.13-26.45 194.58-23Q195.93-25.1 197.45-26.13 198.98-27.15 201.13-27.15L201.13-27.15ZM230.78-29.85L232.33-25.1Q231.28-24.6 229.8-24.4 228.33-24.2 226.13-24.2L226.13-24.2Q228.23-23.2 229.25-21.53 230.28-19.85 230.28-17.4L230.28-17.4Q230.28-13.4 227.83-10.95 225.38-8.5 221.18-8.5L221.18-8.5Q219.93-8.5 218.63-8.9L218.63-8.9Q217.73-8.15 217.73-6.85L217.73-6.85Q217.73-5.85 218.28-5.35 218.83-4.85 220.33-4.85L220.33-4.85 223.13-4.85Q227.13-4.85 229.48-2.78 231.83-0.7 231.83 2.5L231.83 2.5Q231.83 6.3 228.9 8.58 225.98 10.85 220.58 10.85L220.58 10.85Q214.88 10.85 212.6 8.75 210.33 6.65 210.33 2.6L210.33 2.6 215.78 2.6Q215.78 4.75 216.78 5.65 217.78 6.55 220.63 6.55L220.63 6.55Q223.38 6.55 224.53 5.6 225.68 4.65 225.68 2.9L225.68 2.9Q225.68 1.2 224.73 0.4 223.78-0.4 221.78-0.4L221.78-0.4 219.88-0.4Q216.08-0.4 214.33-1.75 212.58-3.1 212.58-5.45L212.58-5.45Q212.58-6.8 213.3-8.03 214.03-9.25 215.28-10.2L215.28-10.2Q213.23-11.5 212.28-13.3 211.33-15.1 211.33-17.7L211.33-17.7Q211.33-22.05 213.93-24.58 216.53-27.1 220.93-27.1L220.93-27.1Q224.18-27.1 226.3-27.8 228.43-28.5 230.78-29.85L230.78-29.85ZM220.93-23Q219.18-23 218.28-21.75 217.38-20.5 217.38-17.8L217.38-17.8Q217.38-15.25 218.28-13.88 219.18-12.5 220.88-12.5L220.88-12.5Q222.63-12.5 223.48-13.73 224.33-14.95 224.33-17.85L224.33-17.85Q224.33-20.55 223.5-21.78 222.68-23 220.93-23L220.93-23ZM237.57-7.05Q239.27-7.05 240.32-5.9 241.37-4.75 241.37-3.15L241.37-3.15Q241.37-1.55 240.32-0.4 239.27 0.75 237.57 0.75L237.57 0.75Q235.92 0.75 234.85-0.4 233.77-1.55 233.77-3.15L233.77-3.15Q233.77-4.75 234.85-5.9 235.92-7.05 237.57-7.05L237.57-7.05ZM248.32-7.05Q250.02-7.05 251.07-5.9 252.12-4.75 252.12-3.15L252.12-3.15Q252.12-1.55 251.07-0.4 250.02 0.75 248.32 0.75L248.32 0.75Q246.67 0.75 245.6-0.4 244.52-1.55 244.52-3.15L244.52-3.15Q244.52-4.75 245.6-5.9 246.67-7.05 248.32-7.05L248.32-7.05ZM259.07-7.05Q260.77-7.05 261.82-5.9 262.87-4.75 262.87-3.15L262.87-3.15Q262.87-1.55 261.82-0.4 260.77 0.75 259.07 0.75L259.07 0.75Q257.42 0.75 256.34-0.4 255.27-1.55 255.27-3.15L255.27-3.15Q255.27-4.75 256.34-5.9 257.42-7.05 259.07-7.05L259.07-7.05Z" opacity="1" transform="matrix(1,0,0,1,0,0)" fill="#50a060" class="slogan-text-1" data-fill-palette-color="secondary" id="text-1"></path></svg></g></svg></g></svg></g></svg></g><g></g></svg></g></svg></g></svg></g><defs></defs></svg><rect width="320" height="360" fill="none" stroke="none" visibility="hidden"></rect></g></svg></g></svg>