<svg xmlns="http://www.w3.org/2000/svg" version="1.1" xmlns:xlink="http://www.w3.org/1999/xlink" xmlns:svgjs="http://svgjs.dev/svgjs" width="2000" height="2000" viewBox="0 0 2000 2000"><g transform="matrix(1,0,0,1,-0.28443113772425477,-0.28443113772459583)"><svg viewBox="0 0 334 334" data-background-color="#ffffff" preserveAspectRatio="xMidYMid meet" height="2000" width="2000" xmlns="http://www.w3.org/2000/svg" xmlns:xlink="http://www.w3.org/1999/xlink"><g id="tight-bounds" transform="matrix(1,0,0,1,0.04749999999998522,0.04750000000001364)"><svg viewBox="0 0 333.90454557049503 333.90454557049503" height="333.90454557049503" width="333.90454557049503"><g><svg></svg></g><g><svg viewBox="0 0 333.90454557049503 333.90454557049503" height="333.90454557049503" width="333.90454557049503"><g><path d="M0 166.952c0-92.205 74.747-166.952 166.952-166.952 92.205 0 166.952 74.747 166.953 166.952 0 92.205-74.747 166.952-166.953 166.953-92.205 0-166.952-74.747-166.952-166.953zM166.952 316.63c82.665 0 149.677-67.013 149.678-149.678 0-82.665-67.013-149.677-149.678-149.677-82.665 0-149.677 67.013-149.677 149.677 0 82.665 67.013 149.677 149.677 149.678z" data-fill-palette-color="tertiary" fill="#4dad56" stroke="transparent"></path><ellipse rx="160.27418187383762" ry="160.27418187383762" cx="166.95227278524752" cy="166.95227278524752" fill="#4dad56" stroke="transparent" stroke-width="0" fill-opacity="1" data-fill-palette-color="tertiary"></ellipse></g><g transform="matrix(1,0,0,1,119.89449193788138,71.17305217166896)"><svg viewBox="0 0 94.11556169473226 191.55844122715712" height="191.55844122715712" width="94.11556169473226"><g><svg viewBox="0 0 94.11556169473226 191.55844122715712" height="191.55844122715712" width="94.11556169473226"><g><svg viewBox="0 0 94.11556169473226 191.55844122715712" height="191.55844122715712" width="94.11556169473226"><g><svg viewBox="0 0 94.11556169473226 191.55844122715712" height="191.55844122715712" width="94.11556169473226"><g id="textblocktransform"><svg viewBox="0 0 94.11556169473226 191.55844122715712" height="191.55844122715712" width="94.11556169473226" id="textblock"><g><svg viewBox="0 0 94.11556169473226 191.55844122715712" height="191.55844122715712" width="94.11556169473226"><g transform="matrix(1,0,0,1,0,0)"><svg width="94.11556169473226" viewBox="-0.25 -35 19.8 40.3" height="191.55844122715712" data-palette-color="#ffffff"><path d="M9.4 5.3Q6.4 5.3 3.88 4 1.35 2.7-0.25 0.3L-0.25 0.3 1.85-2.2Q3.3-0.1 5.2 1 7.1 2.1 9.35 2.1L9.35 2.1Q15.9 2.1 15.9-5.6L15.9-5.6 15.9-31.8 3.1-31.8 3.1-35 19.55-35 19.55-5.75Q19.55-0.25 16.98 2.53 14.4 5.3 9.4 5.3L9.4 5.3Z" opacity="1" transform="matrix(1,0,0,1,0,0)" fill="#ffffff" class="wordmark-text-0" data-fill-palette-color="quaternary" id="text-0"></path></svg></g></svg></g></svg></g></svg></g><g></g></svg></g></svg></g></svg></g></svg></g><defs></defs></svg><rect width="333.90454557049503" height="333.90454557049503" fill="none" stroke="none" visibility="hidden"></rect></g></svg></g></svg>